<svg width="26" height="20" viewBox="0 0 26 20" fill="none" xmlns="http://www.w3.org/2000/svg">
<path d="M0.520045 20C8.37204 20 17.42 20 25.48 20C25.844 20 26.104 19.5767 25.948 19.2593L18.148 3.38624C17.992 3.01587 17.42 3.01587 17.212 3.38624L14.56 8.78307L10.4 0.31746C10.348 0.26455 10.296 0.15873 10.192 0.10582C10.036 0 9.93204 0 9.88004 0C9.82804 0 9.72404 0 9.62004 0.10582C9.51604 0.15873 9.41204 0.26455 9.36004 0.31746C6.03204 7.03704 3.43204 12.328 0.0520446 19.2063C-0.103955 19.5767 0.156045 20 0.520045 20ZM19.552 18.9418L16.068 11.7989L17.212 10.6349L18.564 11.6931C18.98 12.0106 19.552 11.9577 19.916 11.5873L20.644 10.8466L24.648 18.9418H19.552ZM17.68 4.7619L20.176 9.84127L19.188 10.8466L17.836 9.78836C17.42 9.4709 16.848 9.52381 16.484 9.89418L15.6 10.7937L15.184 9.94709L17.68 4.7619ZM9.88004 1.5873L13.936 9.89418C12.844 11.4286 12.844 11.8519 12.376 11.8519C11.648 11.9048 11.232 10 9.82804 10C8.37204 10 8.00804 11.9048 7.28004 11.8519C6.81204 11.8519 6.81204 11.4286 5.72004 9.89418L9.88004 1.5873ZM5.25204 11.0053C5.87604 11.7989 6.13604 12.8571 7.28004 12.963C8.73604 13.0688 9.15204 11.1111 9.88004 11.1111C10.608 11.1111 10.972 13.0688 12.48 12.963C13.624 12.9101 13.884 11.7989 14.508 11.0053L18.408 18.9418H1.35204L5.25204 11.0053Z" fill="#AAAAAA"/>
</svg>
