<svg width="26" height="26" viewBox="0 0 26 26" fill="none" xmlns="http://www.w3.org/2000/svg">
<path d="M4.62308 4.1925L1.81183 8.4175C1.71107 8.52999 1.65099 8.67305 1.64121 8.82375C1.63717 8.88055 1.63717 8.93757 1.64121 8.99437L4.62308 4.1925ZM4.62308 4.1925L4.62308 4.1925L4.62308 4.1925ZM4.62308 4.1925C4.80986 3.90521 5.06498 3.66873 5.36559 3.50425M4.62308 4.1925L5.36559 3.50425M5.36559 3.50425C5.6662 3.33976 6.00292 3.2524 6.34558 3.25L5.36559 3.50425ZM24.2494 8.84513L24.1708 8.81895L24.2027 9.0219C24.2083 9.0575 24.2083 9.09375 24.2027 9.12935L24.2025 9.1311C23.9767 10.7143 23.1357 12.1447 21.8619 13.1117L21.8125 13.1492V13.2113V21.9375C21.8125 22.5508 21.5688 23.139 21.1351 23.5727C20.7015 24.0064 20.1133 24.25 19.5 24.25H6.46746C5.85414 24.25 5.26595 24.0064 4.83227 23.5727C4.39859 23.139 4.15496 22.5508 4.15496 21.9375V13.2519V13.1898L4.10554 13.1523C2.83176 12.1853 1.99073 10.755 1.76495 9.17173L1.76497 9.17173L1.76469 9.16998C1.7591 9.13438 1.7591 9.09812 1.76469 9.06252L1.76621 9.05288V9.04313V8.99437H1.76652L1.76589 8.98551C1.76227 8.93461 1.76227 8.88352 1.76589 8.83262L1.76594 8.83185C1.77391 8.70908 1.82286 8.59254 1.90494 8.5009L1.91093 8.49421L1.9159 8.48674L4.72715 4.26174L4.72715 4.26175L4.72788 4.26063C4.90339 3.99068 5.14312 3.76847 5.42559 3.6139C5.70794 3.45941 6.02419 3.37733 6.34603 3.375H19.6539C19.9805 3.37726 20.3012 3.46162 20.5866 3.62033C20.8721 3.7791 21.1131 4.00718 21.2873 4.28354L21.2873 4.28356L21.289 4.28612L24.1003 8.51112L24.1052 8.51859L24.1112 8.52527C24.1908 8.61415 24.2393 8.72645 24.2494 8.84513ZM21.7085 11.5363L21.7468 11.4904L21.7407 11.4603C21.7715 11.4307 21.8009 11.3997 21.8289 11.3674L21.8293 11.3677L21.8357 11.3587C22.1736 10.8902 22.4347 10.3709 22.6091 9.82026L22.6607 9.6575H22.49H17.615H17.4444L17.4957 9.82011C17.74 10.5942 18.1101 11.2459 18.5515 11.7063C18.9924 12.1661 19.5125 12.4425 20.0525 12.4425H20.1104C20.1851 12.4507 20.2605 12.4504 20.3352 12.4416L20.3353 12.4423L20.3479 12.4395C20.8769 12.3208 21.3458 12.0167 21.67 11.5824L21.7085 11.5363ZM6.34558 4.75V4.74982L6.33896 4.75018C6.24368 4.75523 6.151 4.78307 6.06872 4.83137C5.9869 4.8794 5.91772 4.94625 5.86694 5.02637L3.85274 8.05579L3.72361 8.25H3.95683H22.0431H22.2763L22.1472 8.05579L20.133 5.02638C20.0822 4.94625 20.013 4.8794 19.9312 4.83137L19.8679 4.93918L19.9312 4.83137C19.8489 4.78307 19.7562 4.75523 19.661 4.75018L19.661 4.75H19.6543H6.34558ZM15.5559 9.78991L15.6115 9.625H15.4375H10.5625H10.3911L10.4434 9.78819C10.6919 10.5625 11.0682 11.2139 11.5114 11.674C11.9537 12.1331 12.4717 12.41 13 12.41C13.5287 12.41 14.0406 12.1327 14.4797 11.6737C14.9195 11.2138 15.2955 10.5629 15.5559 9.78991ZM3.50996 9.625H3.33621L3.39144 9.78973C3.57756 10.3449 3.85209 10.8663 4.20443 11.3339C4.2371 11.3822 4.27277 11.4283 4.31121 11.4721V11.4725V11.5139L4.33592 11.5471C4.66021 11.9829 5.13003 12.288 5.66009 12.407L5.65994 12.4076L5.67285 12.4091C5.74752 12.4179 5.82294 12.4182 5.89766 12.41H5.94746C6.47602 12.41 6.98993 12.1329 7.4301 11.6738C7.87108 11.2139 8.24717 10.5628 8.5036 9.78934L8.55809 9.625H8.38496H3.50996ZM9.62496 22.75V22.875H9.74996H16.25H16.375V22.75V16.6075C16.375 16.4795 16.3241 16.3568 16.2336 16.2663C16.1431 16.1758 16.0204 16.125 15.8925 16.125H10.1075C9.97949 16.125 9.85676 16.1758 9.76628 16.2663C9.67579 16.3568 9.62496 16.4795 9.62496 16.6075V22.75ZM17.75 22.75V22.875H17.875H19.5C19.7486 22.875 19.9871 22.7762 20.1629 22.6004C20.3387 22.4246 20.4375 22.1861 20.4375 21.9375V13.8125V13.6875H20.3125H20.1093H20.0481C19.3179 13.6429 18.6137 13.3995 18.0118 12.9835C17.4089 12.5667 16.9318 11.9928 16.6322 11.3239L16.5179 11.0688L16.4039 11.324C16.1057 11.9923 15.6299 12.5659 15.0285 12.9826C14.4291 13.3979 13.7276 13.6415 13 13.6873C12.2723 13.6415 11.5709 13.3979 10.9715 12.9826C10.37 12.5659 9.89424 11.9923 9.59598 11.324L9.48203 11.0688L9.36775 11.3239C9.06814 11.9928 8.59097 12.5667 7.98809 12.9835C7.38623 13.3995 6.68205 13.6429 5.9518 13.6875H5.89058H5.68746H5.56246V13.8125V21.9375C5.56246 22.1861 5.66123 22.4246 5.83704 22.6004C6.01286 22.7762 6.25132 22.875 6.49996 22.875H8.12496H8.24996V22.75V16.6078C8.25202 16.1157 8.44841 15.6444 8.79637 15.2964C9.14432 14.9485 9.61566 14.7521 10.1077 14.75C10.1078 14.75 10.1079 14.75 10.108 14.75H15.8919C15.892 14.75 15.8921 14.75 15.8922 14.75C16.3843 14.7521 16.8556 14.9485 17.2035 15.2964C17.5514 15.6443 17.7478 16.1156 17.75 16.6076C17.75 16.6077 17.75 16.6079 17.75 16.608L17.75 22.75Z" fill="white" stroke="#00C6ED" stroke-width="0.25"/>
</svg>
